{"asset":{"generator":"Khronos glTF Blender I/O v4.5.48","version":"2.0"},"extensionsUsed":["KHR_materials_emissive_strength"],"scene":0,"scenes":[{"name":"Scene","nodes":[40]}],"nodes":[{"name":"CurtainWallSection","rotation":[0,0.7071068286895752,0,0.7071068286895752],"translation":[-23.799999237060547,0,-11]},{"name":"CurtainWallSection.001","rotation":[0,0.7071068286895752,0,0.7071068286895752],"translation":[-23.799999237060547,0,-3]},{"name":"CurtainWallSection.002","rotation":[0,0.7071068286895752,0,0.7071068286895752],"translation":[-23.799999237060547,0,5]},{"name":"CurtainWallSection.003","rotation":[0,0.7071068286895752,0,0.7071068286895752],"translation":[-23.799999237060547,0,13]},{"name":"CurtainWallSection.004","rotation":[0,0.7071068286895752,0,0.7071068286895752],"translation":[-23.799999237060547,0,21]},{"name":"CurtainWallSection.005","rotation":[0,0.7071068286895752,0,0.7071068286895752],"translation":[-23.799999237060547,0,29]},{"name":"CurtainWallSection.006","rotation":[0,0.7071068286895752,0,0.7071068286895752],"translation":[-23.799999237060547,0,37]},{"name":"CurtainWallSection.007","rotation":[0,0.7071068286895752,0,0.7071068286895752],"translation":[23.799999237060547,0,-11]},{"name":"CurtainWallSection.008","rotation":[0,0.7071068286895752,0,0.7071068286895752],"translation":[23.799999237060547,0,-3]},{"name":"CurtainWallSection.009","rotation":[0,0.7071068286895752,0,0.7071068286895752],"translation":[23.799999237060547,0,5]},{"name":"CurtainWallSection.010","rotation":[0,0.7071068286895752,0,0.7071068286895752],"translation":[23.799999237060547,0,13]},{"name":"CurtainWallSection.011","rotation":[0,0.7071068286895752,0,0.7071068286895752],"translation":[23.799999237060547,0,21]},{"name":"CurtainWallSection.012","rotation":[0,0.7071068286895752,0,0.7071068286895752],"translation":[23.799999237060547,0,29]},{"name":"CurtainWallSection.013","rotation":[0,0.7071068286895752,0,0.7071068286895752],"translation":[23.799999237060547,0,37]},{"name":"OakTree","scale":[0.8299999833106995,1,0.8299999833106995],"translation":[-14,0,-9]},{"name":"OakTree.001","scale":[0.8299999833106995,1,0.8299999833106995],"translation":[-14,0,-1]},{"name":"OakTree.002","scale":[0.8299999833106995,1,0.8299999833106995],"translation":[-14,0,7]},{"name":"OakTree.003","scale":[0.8299999833106995,1,0.8299999833106995],"translation":[-14,0,15]},{"name":"OakTree.004","scale":[0.8299999833106995,1,0.8299999833106995],"translation":[-14,0,23]},{"name":"OakTree.005","scale":[0.8299999833106995,1,0.8299999833106995],"translation":[-14,0,31]},{"name":"OakTree.006","scale":[0.8299999833106995,1,0.8299999833106995],"translation":[-14,0,39]},{"name":"OakTree.007","scale":[0.8299999833106995,1,0.8299999833106995],"translation":[14,0,-9]},{"name":"OakTree.008","scale":[0.8299999833106995,1,0.8299999833106995],"translation":[14,0,-1]},{"name":"OakTree.009","scale":[0.8299999833106995,1,0.8299999833106995],"translation":[14,0,7]},{"name":"OakTree.010","scale":[0.8299999833106995,1,0.8299999833106995],"translation":[14,0,15]},{"name":"OakTree.011","scale":[0.8299999833106995,1,0.8299999833106995],"translation":[14,0,23]},{"name":"OakTree.012","scale":[0.8299999833106995,1,0.8299999833106995],"translation":[14,0,31]},{"name":"OakTree.013","scale":[0.8299999833106995,1,0.8299999833106995],"translation":[14,0,39]},{"mesh":0,"name":"PavementBatch0"},{"mesh":1,"name":"PavementBatch1"},{"mesh":2,"name":"PavementBatch2"},{"mesh":3,"name":"PavementBatch3"},{"mesh":4,"name":"PavementUnderlay","scale":[1.0416666269302368,1,1],"translation":[0,-0.029999999329447746,15.100000381469727]},{"mesh":5,"name":"SceneryRuntime","translation":[-13.600000381469727,-0.2199999988079071,15]},{"name":"TimberHouse","rotation":[0,-0.7071068286895752,0,0.7071068286895752],"translation":[-18.5,0,-7]},{"name":"TimberHouse.001","rotation":[0,-0.7071068286895752,0,0.7071068286895752],"translation":[-18.5,0,9]},{"name":"TimberHouse.002","rotation":[0,-0.7071068286895752,0,0.7071068286895752],"translation":[-18.5,0,25]},{"name":"TimberHouse.003","rotation":[0,0.7071068286895752,0,0.7071068286895752],"translation":[18.5,0,-7]},{"name":"TimberHouse.004","rotation":[0,0.7071068286895752,0,0.7071068286895752],"translation":[18.5,0,9]},{"name":"TimberHouse.005","rotation":[0,0.7071068286895752,0,0.7071068286895752],"translation":[18.5,0,25]},{"children":[0,1,2,3,4,5,6,7,8,9,10,11,12,13,14,15,16,17,18,19,20,21,22,23,24,25,26,27,28,29,30,31,32,33,34,35,36,37,38,39],"name":"CourtyardEnvironment"}],"materials":[{"doubleSided":true,"name":"Weathered limestone 0","pbrMetallicRoughness":{"baseColorTexture":{"index":0},"metallicFactor":0,"roughnessFactor":0.9100000262260437}},{"doubleSided":true,"name":"Weathered limestone 1","pbrMetallicRoughness":{"baseColorTexture":{"index":1},"metallicFactor":0,"roughnessFactor":0.9100000262260437}},{"doubleSided":true,"name":"Weathered limestone 2","pbrMetallicRoughness":{"baseColorTexture":{"index":2},"metallicFactor":0,"roughnessFactor":0.9100000262260437}},{"doubleSided":true,"name":"Weathered limestone 3","pbrMetallicRoughness":{"baseColorTexture":{"index":3},"metallicFactor":0,"roughnessFactor":0.9100000262260437}},{"doubleSided":true,"name":"Dark warm masonry joints","pbrMetallicRoughness":{"baseColorFactor":[0.17000000178813934,0.1599999964237213,0.14499999582767487,1],"metallicFactor":0,"roughnessFactor":0.9900000095367432}},{"doubleSided":true,"name":"Courtyard summer grass","pbrMetallicRoughness":{"baseColorFactor":[0.2199999988079071,0.3400000035762787,0.1899999976158142,1],"metallicFactor":0}},{"doubleSided":true,"name":"Courtyard limestone","pbrMetallicRoughness":{"baseColorFactor":[0.3799999952316284,0.35499998927116394,0.3199999928474426,1],"metallicFactor":0,"roughnessFactor":0.9399999976158142}},{"doubleSided":true,"name":"Courtyard honey stone","pbrMetallicRoughness":{"baseColorFactor":[0.47999998927116394,0.4000000059604645,0.33000001311302185,1],"metallicFactor":0,"roughnessFactor":0.8999999761581421}},{"doubleSided":true,"name":"Courtyard slate roofs","pbrMetallicRoughness":{"baseColorFactor":[0.27000001072883606,0.3199999928474426,0.4000000059604645,1],"metallicFactor":0,"roughnessFactor":0.8299999833106995}},{"doubleSided":true,"name":"Courtyard charred wood","pbrMetallicRoughness":{"baseColorFactor":[0.23999999463558197,0.12999999523162842,0.07500000298023224,1],"metallicFactor":0,"roughnessFactor":0.8899999856948853}},{"doubleSided":true,"emissiveFactor":[1,0.36000001430511475,0.03999999910593033],"extensions":{"KHR_materials_emissive_strength":{"emissiveStrength":2.200000047683716}},"name":"Amber flame","pbrMetallicRoughness":{"baseColorFactor":[1,0.36000001430511475,0.03999999910593033,1],"metallicFactor":0,"roughnessFactor":0.550000011920929}},{"doubleSided":true,"name":"Red royal banners","pbrMetallicRoughness":{"baseColorFactor":[0.4699999988079071,0.03799999877810478,0.06400000303983688,1],"metallicFactor":0,"roughnessFactor":0.8799999952316284}},{"doubleSided":true,"name":"Fountain water","pbrMetallicRoughness":{"baseColorFactor":[0.28999999165534973,0.6800000071525574,0.7200000286102295,1],"metallicFactor":0,"roughnessFactor":0.15000000596046448}},{"doubleSided":true,"name":"Dark oak","pbrMetallicRoughness":{"baseColorFactor":[0.20000000298023224,0.10499999672174454,0.054999999701976776,1],"metallicFactor":0,"roughnessFactor":0.8500000238418579}},{"doubleSided":true,"name":"Leaf sunlight","pbrMetallicRoughness":{"baseColorFactor":[0.20000000298023224,0.3199999928474426,0.0949999988079071,1],"metallicFactor":0}},{"doubleSided":true,"name":"Leaf midtone","pbrMetallicRoughness":{"baseColorFactor":[0.10000000149011612,0.23000000417232513,0.07500000298023224,1],"metallicFactor":0}},{"doubleSided":true,"name":"Honey limestone.007","pbrMetallicRoughness":{"baseColorFactor":[0.44999998807907104,0.3799999952316284,0.28999999165534973,1],"metallicFactor":0,"roughnessFactor":0.9200000166893005}},{"doubleSided":true,"name":"Warm plaster.007","pbrMetallicRoughness":{"baseColorFactor":[0.6899999976158142,0.6100000143051147,0.44999998807907104,1],"metallicFactor":0,"roughnessFactor":0.9399999976158142}},{"doubleSided":true,"name":"Weathered slate.007","pbrMetallicRoughness":{"baseColorFactor":[0.11999999731779099,0.20000000298023224,0.27000001072883606,1],"metallicFactor":0,"roughnessFactor":0.8500000238418579}},{"doubleSided":true,"name":"Window recess.007","pbrMetallicRoughness":{"baseColorFactor":[0.054999999701976776,0.07100000232458115,0.0729999989271164,1],"metallicFactor":0,"roughnessFactor":0.8999999761581421}},{"doubleSided":true,"name":"Landscape moss","pbrMetallicRoughness":{"baseColorFactor":[0.1599999964237213,0.23499999940395355,0.09000000357627869,1],"metallicFactor":0}}],"meshes":[{"name":"PavementTileMesh.002","primitives":[{"attributes":{"POSITION":0,"NORMAL":1,"TEXCOORD_0":2},"indices":3,"material":0}]},{"name":"PavementTileMesh.008","primitives":[{"attributes":{"POSITION":4,"NORMAL":5,"TEXCOORD_0":6},"indices":7,"material":1}]},{"name":"PavementTileMesh","primitives":[{"attributes":{"POSITION":8,"NORMAL":9,"TEXCOORD_0":10},"indices":11,"material":2}]},{"name":"PavementTileMesh.005","primitives":[{"attributes":{"POSITION":12,"NORMAL":13,"TEXCOORD_0":14},"indices":15,"material":3}]},{"name":"Cube.065","primitives":[{"attributes":{"POSITION":16,"NORMAL":17,"TEXCOORD_0":18},"indices":19,"material":4}]},{"name":"Cube.066","primitives":[{"attributes":{"POSITION":20,"NORMAL":21,"TEXCOORD_0":22},"indices":23,"material":5},{"attributes":{"POSITION":24,"NORMAL":25,"TEXCOORD_0":26},"indices":27,"material":6},{"attributes":{"POSITION":28,"NORMAL":29,"TEXCOORD_0":30},"indices":31,"material":7},{"attributes":{"POSITION":32,"NORMAL":33,"TEXCOORD_0":34},"indices":35,"material":8},{"attributes":{"POSITION":36,"NORMAL":37,"TEXCOORD_0":38},"indices":39,"material":9},{"attributes":{"POSITION":40,"NORMAL":41,"TEXCOORD_0":42},"indices":43,"material":10},{"attributes":{"POSITION":44,"NORMAL":45,"TEXCOORD_0":46},"indices":47,"material":11},{"attributes":{"POSITION":48,"NORMAL":49,"TEXCOORD_0":50},"indices":51,"material":12},{"attributes":{"POSITION":52,"NORMAL":53,"TEXCOORD_0":54},"indices":55,"material":13},{"attributes":{"POSITION":56,"NORMAL":57,"TEXCOORD_0":58},"indices":59,"material":14},{"attributes":{"POSITION":60,"NORMAL":61,"TEXCOORD_0":62},"indices":63,"material":15},{"attributes":{"POSITION":64,"NORMAL":65,"TEXCOORD_0":66},"indices":67,"material":16},{"attributes":{"POSITION":68,"NORMAL":69,"TEXCOORD_0":70},"indices":71,"material":17},{"attributes":{"POSITION":72,"NORMAL":73,"TEXCOORD_0":74},"indices":75,"material":18},{"attributes":{"POSITION":76,"NORMAL":77,"TEXCOORD_0":78},"indices":79,"material":19},{"attributes":{"POSITION":80,"NORMAL":81,"TEXCOORD_0":82},"indices":83,"material":20}]}],"textures":[{"sampler":0,"source":0},{"sampler":0,"source":1},{"sampler":0,"source":2},{"sampler":0,"source":3}],"images":[{"bufferView":4,"mimeType":"image/png","name":"pavestone_0"},{"bufferView":9,"mimeType":"image/png","name":"pavestone_1"},{"bufferView":14,"mimeType":"image/png","name":"pavestone_2"},{"bufferView":19,"mimeType":"image/png","name":"pavestone_3"}],"accessors":[{"bufferView":0,"componentType":5126,"count":3840,"max":[9.60334300994873,0.042968325316905975,43.615562438964844],"min":[-9.574860572814941,-0.05000000074505806,-13.932552337646484],"type":"VEC3"},{"bufferView":1,"componentType":5126,"count":3840,"type":"VEC3"},{"bufferView":2,"componentType":5126,"count":3840,"type":"VEC2"},{"bufferView":3,"componentType":5123,"count":6720,"type":"SCALAR"},{"bufferView":5,"componentType":5126,"count":3264,"max":[9.562427520751953,0.04295758903026581,43.67109680175781],"min":[-9.517077445983887,-0.05000000074505806,-13.943815231323242],"type":"VEC3"},{"bufferView":6,"componentType":5126,"count":3264,"type":"VEC3"},{"bufferView":7,"componentType":5126,"count":3264,"type":"VEC2"},{"bufferView":8,"componentType":5123,"count":5712,"type":"SCALAR"},{"bufferView":10,"componentType":5126,"count":3168,"max":[9.573095321655273,0.04297995939850807,43.616458892822266],"min":[-9.5581636428833,-0.05000000074505806,-13.975503921508789],"type":"VEC3"},{"bufferView":11,"componentType":5126,"count":3168,"type":"VEC3"},{"bufferView":12,"componentType":5126,"count":3168,"type":"VEC2"},{"bufferView":13,"componentType":5123,"count":5544,"type":"SCALAR"},{"bufferView":15,"componentType":5126,"count":2688,"max":[9.532081604003906,0.042990077286958694,43.625877380371094],"min":[-9.557914733886719,-0.05000000074505806,-13.925040245056152],"type":"VEC3"},{"bufferView":16,"componentType":5126,"count":2688,"type":"VEC3"},{"bufferView":17,"componentType":5126,"count":2688,"type":"VEC2"},{"bufferView":18,"componentType":5123,"count":4704,"type":"SCALAR"},{"bufferView":20,"componentType":5126,"count":24,"max":[9.600000381469727,0.04500000178813934,30.100000381469727],"min":[-9.600000381469727,-0.04500000178813934,-30.100000381469727],"type":"VEC3"},{"bufferView":21,"componentType":5126,"count":24,"type":"VEC3"},{"bufferView":22,"componentType":5126,"count":24,"type":"VEC2"},{"bufferView":23,"componentType":5123,"count":36,"type":"SCALAR"},{"bufferView":24,"componentType":5126,"count":48,"max":[30.700000762939453,0.2150000035762787,34.5],"min":[-3.5,-0.2150000035762787,-34.5],"type":"VEC3"},{"bufferView":25,"componentType":5126,"count":48,"type":"VEC3"},{"bufferView":26,"componentType":5126,"count":48,"type":"VEC2"},{"bufferView":27,"componentType":5123,"count":72,"type":"SCALAR"},{"bufferView":28,"componentType":5126,"count":3816,"max":[31.400001525878906,2.4700000286102295,26.100000381469727],"min":[2.2400007247924805,0.22499999403953552,-26.100000381469727],"type":"VEC3"},{"bufferView":29,"componentType":5126,"count":3816,"type":"VEC3"},{"bufferView":30,"componentType":5126,"count":3816,"type":"VEC2"},{"bufferView":31,"componentType":5123,"count":5808,"type":"SCALAR"},{"bufferView":32,"componentType":5126,"count":13632,"max":[31.079999923706055,3.3000001907348633,25.774999618530273],"min":[2.1700007915496826,0.6700000166893005,-25.774999618530273],"type":"VEC3"},{"bufferView":33,"componentType":5126,"count":13632,"type":"VEC3"},{"bufferView":34,"componentType":5126,"count":13632,"type":"VEC2"},{"bufferView":35,"componentType":5123,"count":20520,"type":"SCALAR"},{"bufferView":36,"componentType":5126,"count":1056,"max":[24.579999923706055,1.8849999904632568,17.3799991607666],"min":[2.619999885559082,0.23499995470046997,-7.380000114440918],"type":"VEC3"},{"bufferView":37,"componentType":5126,"count":1056,"type":"VEC3"},{"bufferView":38,"componentType":5126,"count":1056,"type":"VEC2"},{"bufferView":39,"componentType":5123,"count":1680,"type":"SCALAR"},{"bufferView":40,"componentType":5126,"count":2016,"max":[24.829999923706055,5.939999580383301,18.92500114440918],"min":[2.3700006008148193,0.7400000095367432,-7.5],"type":"VEC3"},{"bufferView":41,"componentType":5126,"count":2016,"type":"VEC3"},{"bufferView":42,"componentType":5126,"count":2016,"type":"VEC2"},{"bufferView":43,"componentType":5123,"count":2832,"type":"SCALAR"},{"bufferView":44,"componentType":5126,"count":160,"max":[24.456785202026367,2.7699999809265137,17.270000457763672],"min":[2.7432146072387695,2.0500001907348633,-7.269999980926514],"type":"VEC3"},{"bufferView":45,"componentType":5126,"count":160,"type":"VEC3"},{"bufferView":46,"componentType":5126,"count":160,"type":"VEC2"},{"bufferView":47,"componentType":5123,"count":216,"type":"SCALAR"},{"bufferView":48,"componentType":5126,"count":864,"max":[24.760000228881836,5.444999694824219,18.94000244140625],"min":[2.440000057220459,4.194999694824219,-5.140000343322754],"type":"VEC3"},{"bufferView":49,"componentType":5126,"count":864,"type":"VEC3"},{"bufferView":50,"componentType":5126,"count":864,"type":"VEC2"},{"bufferView":51,"componentType":5123,"count":1296,"type":"SCALAR"},{"bufferView":52,"componentType":5126,"count":1056,"max":[30.860000610351562,2.5999999046325684,-1.340000033378601],"min":[27.540000915527344,1.0774999856948853,-4.659999847412109],"type":"VEC3"},{"bufferView":53,"componentType":5126,"count":1056,"type":"VEC3"},{"bufferView":54,"componentType":5126,"count":1056,"type":"VEC2"},{"bufferView":55,"componentType":5123,"count":1704,"type":"SCALAR"},{"bufferView":56,"componentType":5126,"count":71280,"max":[34.79500198364258,4.369999885559082,24.898054122924805],"min":[-7.595000743865967,0.2114955186843872,-24.90119171142578],"type":"VEC3"},{"bufferView":57,"componentType":5126,"count":71280,"type":"VEC3"},{"bufferView":58,"componentType":5126,"count":71280,"type":"VEC2"},{"bufferView":59,"componentType":5125,"count":106920,"type":"SCALAR"},{"bufferView":60,"componentType":5126,"count":15120,"max":[29.59200096130371,4.907022476196289,25.739622116088867],"min":[-1.8732497692108154,1.9803173542022705,-25.739622116088867],"type":"VEC3"},{"bufferView":61,"componentType":5126,"count":15120,"type":"VEC3"},{"bufferView":62,"componentType":5126,"count":15120,"type":"VEC2"},{"bufferView":63,"componentType":5123,"count":21168,"type":"SCALAR"},{"bufferView":64,"componentType":5126,"count":20160,"max":[29.073251724243164,5.420000076293945,25.739622116088867],"min":[-2.3919999599456787,1.981071949005127,-25.739622116088867],"type":"VEC3"},{"bufferView":65,"componentType":5126,"count":20160,"type":"VEC3"},{"bufferView":66,"componentType":5126,"count":20160,"type":"VEC2"},{"bufferView":67,"componentType":5123,"count":28224,"type":"SCALAR"},{"bufferView":68,"componentType":5126,"count":116640,"max":[37.82500076293945,6.694999694824219,25.982500076293945],"min":[-10.624999046325684,0.21999996900558472,-29.982500076293945],"type":"VEC3"},{"bufferView":69,"componentType":5126,"count":116640,"type":"VEC3"},{"bufferView":70,"componentType":5126,"count":116640,"type":"VEC2"},{"bufferView":71,"componentType":5125,"count":174960,"type":"SCALAR"},{"bufferView":72,"componentType":5126,"count":34668,"max":[37.900001525878906,6.119999885559082,26.040000915527344],"min":[-10.69999885559082,0.23749995231628418,-30.040000915527344],"type":"VEC3"},{"bufferView":73,"componentType":5126,"count":34668,"type":"VEC3"},{"bufferView":74,"componentType":5126,"count":34668,"type":"VEC2"},{"bufferView":75,"componentType":5123,"count":51984,"type":"SCALAR"},{"bufferView":76,"componentType":5126,"count":119232,"max":[35,6.257589817047119,12.421477317810059],"min":[-7.799999713897705,4.196565628051758,-24.421476364135742],"type":"VEC3"},{"bufferView":77,"componentType":5126,"count":119232,"type":"VEC3"},{"bufferView":78,"componentType":5126,"count":119232,"type":"VEC2"},{"bufferView":79,"componentType":5125,"count":178848,"type":"SCALAR"},{"bufferView":80,"componentType":5126,"count":9504,"max":[37.75,3.8000001907348633,26],"min":[-10.549999237060547,0.2200000286102295,-30],"type":"VEC3"},{"bufferView":81,"componentType":5126,"count":9504,"type":"VEC3"},{"bufferView":82,"componentType":5126,"count":9504,"type":"VEC2"},{"bufferView":83,"componentType":5123,"count":14256,"type":"SCALAR"},{"bufferView":84,"componentType":5126,"count":2904,"max":[59.599998474121094,6.220000267028809,45.5],"min":[-32.39999771118164,-7.779999732971191,-45.5],"type":"VEC3"},{"bufferView":85,"componentType":5126,"count":2904,"type":"VEC3"},{"bufferView":86,"componentType":5126,"count":2904,"type":"VEC2"},{"bufferView":87,"componentType":5123,"count":4068,"type":"SCALAR"}],"bufferViews":[{"buffer":0,"byteLength":46080,"byteOffset":0,"target":34962},{"buffer":0,"byteLength":46080,"byteOffset":46080,"target":34962},{"buffer":0,"byteLength":30720,"byteOffset":92160,"target":34962},{"buffer":0,"byteLength":13440,"byteOffset":122880,"target":34963},{"buffer":0,"byteLength":412631,"byteOffset":136320},{"buffer":0,"byteLength":39168,"byteOffset":548952,"target":34962},{"buffer":0,"byteLength":39168,"byteOffset":588120,"target":34962},{"buffer":0,"byteLength":26112,"byteOffset":627288,"target":34962},{"buffer":0,"byteLength":11424,"byteOffset":653400,"target":34963},{"buffer":0,"byteLength":424672,"byteOffset":664824},{"buffer":0,"byteLength":38016,"byteOffset":1089496,"target":34962},{"buffer":0,"byteLength":38016,"byteOffset":1127512,"target":34962},{"buffer":0,"byteLength":25344,"byteOffset":1165528,"target":34962},{"buffer":0,"byteLength":11088,"byteOffset":1190872,"target":34963},{"buffer":0,"byteLength":298252,"byteOffset":1201960},{"buffer":0,"byteLength":32256,"byteOffset":1500212,"target":34962},{"buffer":0,"byteLength":32256,"byteOffset":1532468,"target":34962},{"buffer":0,"byteLength":21504,"byteOffset":1564724,"target":34962},{"buffer":0,"byteLength":9408,"byteOffset":1586228,"target":34963},{"buffer":0,"byteLength":407102,"byteOffset":1595636},{"buffer":0,"byteLength":288,"byteOffset":2002740,"target":34962},{"buffer":0,"byteLength":288,"byteOffset":2003028,"target":34962},{"buffer":0,"byteLength":192,"byteOffset":2003316,"target":34962},{"buffer":0,"byteLength":72,"byteOffset":2003508,"target":34963},{"buffer":0,"byteLength":576,"byteOffset":2003580,"target":34962},{"buffer":0,"byteLength":576,"byteOffset":2004156,"target":34962},{"buffer":0,"byteLength":384,"byteOffset":2004732,"target":34962},{"buffer":0,"byteLength":144,"byteOffset":2005116,"target":34963},{"buffer":0,"byteLength":45792,"byteOffset":2005260,"target":34962},{"buffer":0,"byteLength":45792,"byteOffset":2051052,"target":34962},{"buffer":0,"byteLength":30528,"byteOffset":2096844,"target":34962},{"buffer":0,"byteLength":11616,"byteOffset":2127372,"target":34963},{"buffer":0,"byteLength":163584,"byteOffset":2138988,"target":34962},{"buffer":0,"byteLength":163584,"byteOffset":2302572,"target":34962},{"buffer":0,"byteLength":109056,"byteOffset":2466156,"target":34962},{"buffer":0,"byteLength":41040,"byteOffset":2575212,"target":34963},{"buffer":0,"byteLength":12672,"byteOffset":2616252,"target":34962},{"buffer":0,"byteLength":12672,"byteOffset":2628924,"target":34962},{"buffer":0,"byteLength":8448,"byteOffset":2641596,"target":34962},{"buffer":0,"byteLength":3360,"byteOffset":2650044,"target":34963},{"buffer":0,"byteLength":24192,"byteOffset":2653404,"target":34962},{"buffer":0,"byteLength":24192,"byteOffset":2677596,"target":34962},{"buffer":0,"byteLength":16128,"byteOffset":2701788,"target":34962},{"buffer":0,"byteLength":5664,"byteOffset":2717916,"target":34963},{"buffer":0,"byteLength":1920,"byteOffset":2723580,"target":34962},{"buffer":0,"byteLength":1920,"byteOffset":2725500,"target":34962},{"buffer":0,"byteLength":1280,"byteOffset":2727420,"target":34962},{"buffer":0,"byteLength":432,"byteOffset":2728700,"target":34963},{"buffer":0,"byteLength":10368,"byteOffset":2729132,"target":34962},{"buffer":0,"byteLength":10368,"byteOffset":2739500,"target":34962},{"buffer":0,"byteLength":6912,"byteOffset":2749868,"target":34962},{"buffer":0,"byteLength":2592,"byteOffset":2756780,"target":34963},{"buffer":0,"byteLength":12672,"byteOffset":2759372,"target":34962},{"buffer":0,"byteLength":12672,"byteOffset":2772044,"target":34962},{"buffer":0,"byteLength":8448,"byteOffset":2784716,"target":34962},{"buffer":0,"byteLength":3408,"byteOffset":2793164,"target":34963},{"buffer":0,"byteLength":855360,"byteOffset":2796572,"target":34962},{"buffer":1,"byteLength":855360,"byteOffset":0,"target":34962},{"buffer":1,"byteLength":570240,"byteOffset":855360,"target":34962},{"buffer":1,"byteLength":427680,"byteOffset":1425600,"target":34963},{"buffer":1,"byteLength":181440,"byteOffset":1853280,"target":34962},{"buffer":1,"byteLength":181440,"byteOffset":2034720,"target":34962},{"buffer":1,"byteLength":120960,"byteOffset":2216160,"target":34962},{"buffer":1,"byteLength":42336,"byteOffset":2337120,"target":34963},{"buffer":1,"byteLength":241920,"byteOffset":2379456,"target":34962},{"buffer":1,"byteLength":241920,"byteOffset":2621376,"target":34962},{"buffer":1,"byteLength":161280,"byteOffset":2863296,"target":34962},{"buffer":1,"byteLength":56448,"byteOffset":3024576,"target":34963},{"buffer":2,"byteLength":1399680,"byteOffset":0,"target":34962},{"buffer":2,"byteLength":1399680,"byteOffset":1399680,"target":34962},{"buffer":2,"byteLength":933120,"byteOffset":2799360,"target":34962},{"buffer":3,"byteLength":699840,"byteOffset":0,"target":34963},{"buffer":3,"byteLength":416016,"byteOffset":699840,"target":34962},{"buffer":3,"byteLength":416016,"byteOffset":1115856,"target":34962},{"buffer":3,"byteLength":277344,"byteOffset":1531872,"target":34962},{"buffer":3,"byteLength":103968,"byteOffset":1809216,"target":34963},{"buffer":3,"byteLength":1430784,"byteOffset":1913184,"target":34962},{"buffer":4,"byteLength":1430784,"byteOffset":0,"target":34962},{"buffer":4,"byteLength":953856,"byteOffset":1430784,"target":34962},{"buffer":4,"byteLength":715392,"byteOffset":2384640,"target":34963},{"buffer":4,"byteLength":114048,"byteOffset":3100032,"target":34962},{"buffer":4,"byteLength":114048,"byteOffset":3214080,"target":34962},{"buffer":4,"byteLength":76032,"byteOffset":3328128,"target":34962},{"buffer":4,"byteLength":28512,"byteOffset":3404160,"target":34963},{"buffer":4,"byteLength":34848,"byteOffset":3432672,"target":34962},{"buffer":4,"byteLength":34848,"byteOffset":3467520,"target":34962},{"buffer":4,"byteLength":23232,"byteOffset":3502368,"target":34962},{"buffer":4,"byteLength":8136,"byteOffset":3525600,"target":34963}],"samplers":[{"magFilter":9729,"minFilter":9987}],"buffers":[{"uri":"courtyard_environment_part0.bin","byteLength":3651932},{"uri":"courtyard_environment_part1.bin","byteLength":3081024},{"uri":"courtyard_environment_part2.bin","byteLength":3732480},{"uri":"courtyard_environment_part3.bin","byteLength":3343968},{"uri":"courtyard_environment_part4.bin","byteLength":3533736}]}