{"asset":{"generator":"Khronos glTF Blender I/O v4.0.44","version":"2.0"},"scene":0,"scenes":[{"name":"Scene","nodes":[0]}],"nodes":[{"mesh":0,"name":"Prop_Vine1"}],"materials":[{"alphaCutoff":0.5,"alphaMode":"MASK","doubleSided":true,"name":"MI_Vine","pbrMetallicRoughness":{"baseColorFactor":[0.025,0.12,0.006,1.0],"baseColorTexture":{"index":0},"metallicFactor":0,"roughnessFactor":0.5}}],"meshes":[{"name":"Plane","primitives":[{"attributes":{"POSITION":0,"NORMAL":1,"TEXCOORD_0":2},"indices":3,"material":0}]}],"textures":[{"sampler":0,"source":0}],"images":[{"mimeType":"image/png","name":"T_VineLeaf.png","uri":"village_T_VineLeaf_png.png"}],"accessors":[{"bufferView":0,"componentType":5126,"count":159,"max":[0.5,1,0.5],"min":[-0.5,0,-0.5],"type":"VEC3"},{"bufferView":1,"componentType":5126,"count":159,"type":"VEC3"},{"bufferView":2,"componentType":5126,"count":159,"type":"VEC2"},{"bufferView":3,"componentType":5123,"count":246,"type":"SCALAR"}],"bufferViews":[{"buffer":0,"byteLength":1908,"byteOffset":0,"target":34962},{"buffer":0,"byteLength":1908,"byteOffset":1908,"target":34962},{"buffer":0,"byteLength":1272,"byteOffset":3816,"target":34962},{"buffer":0,"byteLength":492,"byteOffset":5088,"target":34963}],"samplers":[{"magFilter":9729,"minFilter":9987}],"buffers":[{"byteLength":5580,"uri":"ivy_0.bin"}]}
