{"asset":{"generator":"Khronos glTF Blender I/O v4.0.44","version":"2.0"},"scene":0,"scenes":[{"name":"Scene","nodes":[0]}],"nodes":[{"mesh":0,"name":"Prop_Brick2"}],"materials":[{"doubleSided":true,"name":"MI_RockTrim","normalTexture":{"index":0},"pbrMetallicRoughness":{"baseColorTexture":{"index":1},"metallicRoughnessTexture":{"index":2},"baseColorFactor":[0.78,0.68,0.5,1.0]}}],"meshes":[{"name":"Cube.017_Retopology.001","primitives":[{"attributes":{"POSITION":0,"NORMAL":1,"TEXCOORD_0":2},"indices":3,"material":0}]}],"textures":[{"sampler":0,"source":0},{"sampler":0,"source":1},{"sampler":0,"source":2}],"images":[{"mimeType":"image/png","name":"T_RockTrim_Normal","uri":"village_T_RockTrim_Normal.png"},{"mimeType":"image/png","name":"T_RockTrim_BaseColor","uri":"village_T_RockTrim_BaseColor.png"},{"mimeType":"image/png","name":"T_RockTrim_ORM","uri":"village_T_RockTrim_ORM.png"}],"accessors":[{"bufferView":0,"componentType":5126,"count":77,"max":[0.5,0.5,0.5],"min":[-0.5,-0.5,-0.5],"type":"VEC3"},{"bufferView":1,"componentType":5126,"count":77,"type":"VEC3"},{"bufferView":2,"componentType":5126,"count":77,"type":"VEC2"},{"bufferView":3,"componentType":5123,"count":282,"type":"SCALAR"}],"bufferViews":[{"buffer":0,"byteLength":924,"byteOffset":0,"target":34962},{"buffer":0,"byteLength":924,"byteOffset":924,"target":34962},{"buffer":0,"byteLength":616,"byteOffset":1848,"target":34962},{"buffer":0,"byteLength":564,"byteOffset":2464,"target":34963}],"samplers":[{"magFilter":9729,"minFilter":9987}],"buffers":[{"byteLength":3028,"uri":"stone_alt_0.bin"}]}
